<svg viewBox="0 0 470 64" style="background-color:#ffffff00" xmlns="http://www.w3.org/2000/svg" width="470" height="64"><path fill="#fff" d="M16.515 63.522l-4.785-26.5H9.227v26.5H0V.692h9.227c11.047 0 15.746 6.238 15.746 18.12 0 6.24-1.624 11.883-5.127 14.277l5.896 30.432h-9.227zm-7.318-35.05c1.282 0 2.99-.17 4.357-1.367s2.478-3.505 2.478-7.95c0-4.446-1.11-6.84-2.478-8.036-1.367-1.198-3.075-1.283-4.357-1.283v18.636zM30.586.664h21.19v9.482H39.852l.002 16.483h8.58v10.21h-8.58v17.016h11.925v9.482h-21.19V.664zM72.098 17.47c0-2.044-.085-4.345-.683-6.134-.598-1.705-1.538-2.898-2.99-2.898-2.393.085-3.162 2.557-3.162 6.22 0 2.132.94 4.347 2.307 6.733 1.367 2.387 3.16 4.86 4.955 7.5 2.136 3.154 4.272 6.392 5.895 9.545 1.624 3.153 2.734 6.39 2.734 9.8 0 4.175-.683 8.095-2.648 10.993C76.54 62.125 73.38 64 68.34 64c-5.896 0-9.228-2.216-11.108-5.624-1.88-3.41-2.306-7.926-2.306-12.612l9.25-.853c0 2.643.083 5.285.752 7.245.585 2.045 1.588 3.408 3.512 3.408 2.675 0 3.678-2.897 3.678-6.902 0-2.044-1.003-4.43-2.34-6.902-.753-1.193-1.506-2.47-2.342-3.75a411.031 411.031 0 0 1-5.738-8.606c-2.05-3.153-3.59-6.392-4.528-9.715a16.69 16.69 0 0 1-.77-5.028c0-3.41.77-7.074 2.735-9.886C61.1 2.047 64.09.087 68.355.002c5.472-.085 8.718 2.215 10.513 5.54 1.794 3.408 2.306 7.583 2.306 11.077l-9.076.85zM85.968.692h9.227c4.064 0 8.1 1.024 11.175 3.93 3.076 2.907 5.126 7.694 5.126 14.875 0 7.18-2.05 11.882-5.126 14.79-3.076 2.905-7.11 4.102-11.175 4.102V63.52h-9.227V.692zm9.227 28.294c2.854 0 4.67-.513 5.707-1.966 1.025-1.368 1.235-3.676 1.235-7.18 0-3.506-.21-5.985-1.235-7.524-1.038-1.54-2.853-2.223-5.707-2.223v18.893zM140.03 50.45c-.084 2.557-.597 4.858-1.537 6.818a11.734 11.734 0 0 1-3.673 4.602c-1.71 1.363-4.016 2.13-7.136 2.13s-5.513-.767-7.22-2.13c-1.71-1.28-2.82-2.898-3.59-4.602-.94-1.96-1.452-4.26-1.538-6.818v-36.9c.086-2.47.598-4.77 1.538-6.73.77-1.705 1.88-3.41 3.59-4.688 1.707-1.278 4.1-2.13 7.22-2.13s5.427.852 7.136 2.13c1.708 1.278 2.905 2.983 3.673 4.687.94 1.96 1.453 4.26 1.538 6.73v36.9zm-9.226-36.9c0-1.703-.347-2.896-1.213-3.92-.433-.425-1.126-.68-1.906-.68-1.647 0-2.427 1.193-2.774 2.3-.26.682-.347 1.45-.347 2.3v36.9c0 1.79.434 2.983 1.3 3.92.434.427 1.04.682 1.82.682 1.647 0 2.428-1.023 2.774-2.3.26-.597.347-1.364.347-2.302v-36.9zm25.468 17.23l-.77-2.906h-.51v35.648h-8.46V.692h8.202l8.97 32.74.77 2.905h.513V.692h8.458v62.83h-8.202l-8.97-32.74zm39.172-13.31c0-2.044-.085-4.345-.684-6.134-.598-1.705-1.537-2.898-2.99-2.898-2.392.085-3.16 2.557-3.16 6.22 0 2.132.94 4.347 2.306 6.733 1.367 2.387 3.16 4.86 4.955 7.5 2.137 3.154 4.273 6.392 5.896 9.545 1.624 3.153 2.734 6.39 2.734 9.8 0 4.175-.683 8.095-2.648 10.993-1.965 2.897-5.126 4.772-10.167 4.772-5.895 0-9.227-2.216-11.107-5.624-1.88-3.41-2.307-7.926-2.307-12.612l9.25-.853c0 2.643.085 5.285.754 7.245.585 2.045 1.588 3.408 3.51 3.408 2.677 0 3.68-2.897 3.68-6.902 0-2.044-1.003-4.43-2.34-6.902-.753-1.193-1.506-2.47-2.342-3.75a418.65 418.65 0 0 1-5.74-8.606c-2.05-3.153-3.587-6.392-4.527-9.715a16.719 16.719 0 0 1-.768-5.028c0-3.41.768-7.074 2.733-9.886 1.965-2.727 4.956-4.687 9.222-4.772 5.47-.085 8.717 2.215 10.51 5.54 1.796 3.408 2.308 7.583 2.308 11.077l-9.076.85zM209.948.692h9.01v62.83h-9.01V.692zm32.432 0h8.972l-9.57 62.83h-9.272L222.94.692h8.97l4.615 34.534.35 2.65h.542l.35-2.65L242.382.692zm13.005-.028h21.19v9.482h-11.924V26.63h8.58v10.21h-8.58v17.016h11.926v9.482h-21.19V.664zm55.949 35.502h-6.875v27.356h-9.228V.692h9.227v25.986h6.874V.692h9.227v62.83h-9.226V36.167zM327.47.664h21.192v9.482h-11.926V26.63h8.58v10.21h-8.58v17.016h11.926v9.482H327.47V.664zm23.657 62.858L360.61.692h10.977l9.483 62.83h-8.97L370.39 50.7h-8.583l-1.71 12.822h-8.97zm15.334-42.4l-.205-1.625h-.312l-.206 1.624-2.648 19.834h6.02l-2.65-19.833zm19.595 42.4V.692h7.262c8.568 0 13.183 1.707 15.66 6.495 2.393 4.787 2.734 12.652 2.734 24.962s-.34 20.088-2.734 24.875c-2.477 4.787-7.092 6.497-15.66 6.497h-7.262zm9.227-9.232c3.173 0 4.974-.342 5.917-3.42.43-1.453.772-3.676.858-6.668V19.924c-.086-2.906-.43-5.13-.858-6.668-.943-2.992-2.744-3.334-5.917-3.334V54.29zM417.71.664h21.192v9.482h-11.926V26.63h8.58v10.21h-8.58v17.016h11.926v9.482H417.71V.664zm43.063 62.858l-4.785-26.5h-2.502v26.5h-9.228V.692h9.228c11.046 0 15.745 6.238 15.745 18.12 0 6.24-1.622 11.883-5.125 14.277L470 63.52h-9.227zm-7.318-35.05c1.282 0 2.99-.17 4.358-1.367 1.367-1.197 2.477-3.505 2.477-7.95 0-4.446-1.11-6.84-2.477-8.036-1.367-1.198-3.076-1.283-4.358-1.283v18.636z"/></svg>